# xmcd
#
# Track frame offsets:
#	225
#	12853
#	28938
#
# Disc length: 570 seconds
#
# Revision: 0
# Processed by: cddbd v1.5.1PL0 Copyright (c) Steve Scherf et al.
# Submitted via: dBpowerAMP V4.0
#
DISCID=1c023703
DTITLE=Rheinstone Cowboys - Eisen im Feuer
DYEAR=1991
DGENRE=Country
TTITLE0=Eisen im Feuer
TTITLE1=Wenn mer kein Glück hat...
TTITLE2=Cowboys küssen sowieso..
EXTD=
EXTT0=
EXTT1=
EXTT2=
PLAYORDER=
